<svg width="86" height="128" viewBox="0 0 86 128" fill="none" xmlns="http://www.w3.org/2000/svg">
<path d="M0.8125 106.188C0.8125 94.5377 10.2565 85.0938 21.9062 85.0938H43V106.188C43 117.837 33.556 127.281 21.9062 127.281C10.2565 127.281 0.8125 117.837 0.8125 106.188Z" fill="#24CB71"/>
<path d="M43 0.71875V42.9062H64.0938C75.7435 42.9062 85.1875 33.4623 85.1875 21.8125C85.1875 10.1627 75.7435 0.71875 64.0938 0.71875L43 0.71875Z" fill="#FF7237"/>
<circle cx="63.918" cy="64" r="21.0938" fill="#00B6FF"/>
<path d="M0.8125 21.8125C0.8125 33.4623 10.2565 42.9062 21.9063 42.9062L43 42.9062L43 0.718746L21.9063 0.718746C10.2565 0.718746 0.8125 10.1627 0.8125 21.8125Z" fill="#FF3737"/>
<path d="M0.8125 64C0.8125 75.6498 10.2565 85.0938 21.9063 85.0938H43L43 42.9062L21.9063 42.9062C10.2565 42.9062 0.8125 52.3502 0.8125 64Z" fill="#874FFF"/>
</svg>
